<svg id="Capa_1" data-name="Capa 1" xmlns="http://www.w3.org/2000/svg" viewBox="0 0 228.65 226.47"><title>NX1 b</title><path d="M226,167.51c-3.14-2.56-6.25-5.18-9.17-8-2-1.94-3.57-4.36-5.55-6.35-5.57-5.6-11.28-11.06-16.89-16.62-3.6-3.56-7.22-7.1-10.66-10.8-3.77-4-7.36-8.27-11.16-12.57,2.76-2.21,6.63-4.84,9.94-8,9.85-9.51,19.49-19.24,29.21-28.88a83.69,83.69,0,0,1,6.22-6c1.89-1.52,2.07-4,4.33-5.55s4-4.59,5.55-7.17c2.41-3.9,2.05-5.09-1.66-7.68-.59-.41-1.62-.58-1.83-1.11-1.76-4.42-6.15-5.87-9.43-8.56a17.13,17.13,0,0,0-3.66-2.63c-1.71-.76-2.68-3.65-4.71-2.43-2.78-2.8-5.54-5.52-8.23-8.31-1.19-1.24-2.65-2.44-3.28-3.95-1-2.34-2.22-3.69-4.46-3.14-1.17-1.72-2.1-3.32-3.27-4.73a39.72,39.72,0,0,0-4.67-4.9,111.16,111.16,0,0,0-9.47-7.35c-.73-.49-2.68-.12-3.46.55-3.65,3.15-7.11,6.5-10.57,9.86-1.46,1.41-2.73,3-4.83,5.34,5,1.05,9.25,2.93,13.31,2.56,4.74-.43,7.7,4.47,12.35,3,.05,0,.2.63.41.73,3.37,1.63,6.19,4.51,10.41,4.2a32.55,32.55,0,0,1,5.45.47c-3.09,2.07-3.53,4.72-3.08,7.74l1.9,4.65L194.43,44l.47,1.77-2.39-1.45,1.6,4.89-1.6.88c.46.82,1.31,1.65,1.3,2.47,0,1.11-.67,2.21-1.23,3.81l-3.25-4.94-.65.4-.14,1.26-4.75,3.38-.75-.63.69,2-.16.12.22.07h0l0-.23c.55.49,1.29.89,1.59,1.5.58,1.16,1.49,2.62,1.18,3.62s-1.95,1.67-3.11,1.88a17.12,17.12,0,0,1-4.34-.29l-.27.92,4,1.4-.1.75c-2.29-.33-4.59-.6-6.87-1-2-.36-3.34.14-4,2.44l-3.43-.82L172,65.39l-.32-1L154.54,68.8l.21,1.38c-.62.05-1.59.39-1.81.12-1.2-1.48-3.2.42-4.62-1.47-.92-1.22-2.59.36-2.39,2.72-15.46-.26-30.93.42-46.38-.25l-.45-1c1.17-.75,2.26-1.88,3.54-2.17a152.14,152.14,0,0,1,15.67-2.94c4-.46,8.15,0,12.22-.06,6.14-.15,12.32-.27,18.07-2.88,3.64-1.65,3.62-1.68,5.19,2.66l12.66-3.19h0l.69,1.31c.8-.69,2.33-1.46,2.26-2-.27-2.34,1-2,2.64-1.92-.72-1.13-1.47-2.42-2.56-2.89a53,53,0,0,0-6.58-1.93l1.35-7.42,4.09-.25-.3-3.76c-.22-.72-.43-1.44-.62-2.14.53,0,1.09-.07,1.65-.1l0-.62L170.73,41l-3-11.35L165,34.06l-.44-3a16.62,16.62,0,0,1-.69,1.63,16.64,16.64,0,0,0,.69-1.63c-.25-2.53-2.24-2.26-4-2.51a9.24,9.24,0,0,1-2.93-.78c-2.71-1.42,0-3.56-.57-5.28-4.64-2.43-5.5-2.31-9,1.36-2.2,2.3-4.38,4.62-6.56,6.93-6.78,7.19-13.54,14.41-20.37,21.56a36.55,36.55,0,0,1-4.68,4,2.42,2.42,0,0,1-2.21.26c-1.47-1.3-3.63-1.88-4.07-4.36-.22-1.23-1.35-2.4-2.3-3.38Q102.19,43,96.36,37.28c-2.84-2.8-5.72-5.57-8.66-8.26-3.45-3.15-7.28-5.93-10.4-9.36-2.81-3.1-4.91-6.55-8.79-8.92S61.59,4.17,58.21.8l.08,1.75-.82-.94c-2.33,2.12-4.67,4.27-7,6.38s-3.22,6-7,6.75c-.4.08-.65.93-1,1.41a13.69,13.69,0,0,1-1.7,2.31c-4.91,4.51-10,8.85-14.78,13.46s-9.56,9.58-14.28,14.42c-3.2,3.28-7.9,5.72-6.38,12.2,2.52,0,5.39.09,8.25,0,3.6-.13,7.19-.57,10.79-.62,7.67-.11,15.34,0,23-.09s15.55-.36,23.32-.35c6.24,0,12.48.56,18.72.46,6.4-.1,12.79-.72,19.19-1,.9,0,2.58.62,2.6,1,0,1.1-.28,2.86-1,3.21-2.78,1.33-5.73,2.89-8.71,3.12-7.21.56-14.48.31-21.71.6-6.07.24-12.14.72-18.2,1.21-12.82,1-25.63,2.14-38.45,3.2-1.49.12-3.06-.15-4.46.23s-4.14,1.09-2.93,3c1.62,2.5,3.49,5.51,7.21,5.62,8.89.27,17.77.5,26.66.76a13,13,0,0,1,1.57.23v.52l-27,1.19c2.47,2.6,4.35,4.62,6.28,6.6C36.91,94,43.33,100.81,50,107.3c2.63,2.56,4.38,6.32,8.49,7.13,1.28.25,2.59.34,4.14.53l-7.11,5.25.29.63h7.25v.36l-1.77.42,0,.34,10.38.73-3.65-.93c1.47-1.4,1.42-1.17,3.78-.64a18.28,18.28,0,0,0,5-.08,17.74,17.74,0,0,1,4.69,0l-2.15.67,9.78,3.83-.28.78-4.24-1.12.41,1H78.26l1-1.31-8.84.7,0-.4,3-1.11-.09-.26-6.94,1.21-.08-.39,3.33-1.19L69.4,123l-7.29,1.54.08.54,2.72.52,0,.82c-3.31,0-6.63.14-9.94,0-4.08-.21-7.75-.13-10.74,3.53-3.14,3.84-6.92,7.16-10.39,10.73-4.43,4.56-8.8,9.19-13.27,13.71C14,161,7.38,167.52.68,174.2c7.49,7.42,14.66,14.32,21.56,21.49,1.85,1.93,3.68,2.28,6.07,2.21,11.84-.32,23.67-.6,35.51-.78,8.69-.13,17.39.05,26.08-.15a7.26,7.26,0,0,0,6.22-3.24c2.44-3.46,5.88-6.19,8.62-9.46,2.27-2.7,4.14-5.74,5.64-7.86a36.63,36.63,0,0,0,3.49-2.11c1.08-.85,2-1.87,3.08-2.86,3.22,3.57,5.93,6.82,8.92,9.8,1.64,1.63,4.27,2.43,5.52,4.25,2.52,3.65,5.06,7.23,8.81,9.63,3.12,2,4.35,7.14,9.07,5.69a18.76,18.76,0,0,0-1.47,1.7c0,.06.55.85.88.88,2.19.18,4.39.29,6.58.34,2.59.06,5.19.15,7.77,0a57.82,57.82,0,0,0,5.76-.88l-.24-1.19c-1.21.27-2.52.95-3.59.67s-1.66-1.53-2.7-2.59a30.41,30.41,0,0,1,3.4-.16,19.57,19.57,0,0,1,2.59.54,15.36,15.36,0,0,1-.08-2.33c0-.29.52-.52.8-.78l2.07,3.42a12.55,12.55,0,0,1,2.57-.75,22,22,0,0,1,3.08.24c.09-.66.09-1.7.31-1.75a41.19,41.19,0,0,1,4.51-.58c1.34-1.75.65-2.63-1.26-3l-.87,2.51-2.21-2.51,5.19-1.49,3.3,3.34.72.25c-.24-1.85,1-2.65,2.4-3.3l1.88,2.7-.34.17.74,1.25h0l-.93,1,2.22.51-.12.78c-1.85.23-3.88,2.19-5.37-1.09-1.69,1.76-3.52,3.44-6.16,3a18,18,0,0,1-4-1.7L173,203.38a25.14,25.14,0,0,1,3.91-.32,35.08,35.08,0,0,1,4.87.84,23,23,0,0,1,4.79,1.42c.74.35,1.1,1.5,1.63,2.29l-.74.6-2.51-1-1.68,1.65.38,3.29-4.55-.22a56.49,56.49,0,0,0-6.86.12,42.36,42.36,0,0,0-6,1.71v-5.54l-.76,0-.28,3.41-7.49,1.62c.42.63.55.88.73,1.1,2.15,2.53,5.49,3.79,7.18,6.86a14.57,14.57,0,0,0,2.85,3.61c3.35,3.11,7.35,3.27,10.24.51,1.69-1.61,3.31-3.3,4.94-5,2.55-2.64,5-5.37,7.62-7.93,2.29-2.24,3.07-5,3.23-8.36l2.8,1.63c2-1.79,3.92-3.66,6-5.42,1.1-.94,2.5-1.56,3.53-2.57,4-4,8.29-7.74,11.76-12.15,3-3.77,9.11-6.1,6.91-12.75,0-.09.22-.27.34-.41l1.5,3.82C229.94,173.22,229.3,170.23,226,167.51ZM189.91,81.23c3.21-.78,2.93,3.47,5,4.89l-.51.53-4.74-2.1,1.64,1.83-.3.67-4.72-1.57Zm-31-40.72.06,1-.63-.82Zm-2.57,6.76a22.77,22.77,0,0,1,4.47-.07l.18.91.34-2.83.92.15c-.38,1.36-.35,3.39-1.22,3.92-1.58.95-2.86,1.62-2.73,3.68,0,.11-.77.26-1.23.4-.82-2.08-2.37-2.35-4.4-1.62l-.5-2.69A21.79,21.79,0,0,1,156.36,47.27Zm-4.67,6.3h5.39l.59,2.36-4.08,1.13.77-1.53-2.8-1.48ZM55.26,162.38a5.46,5.46,0,0,1-6.15-2c-3.58-4.8-8.65-7.39-13.54-10.32a2.63,2.63,0,0,1-.51-.58l.49-.76,20.22,12.48Zm38.57-36-.66.3-8.41-4.63,6.74-1.75L86.62,120l.08-1L99,120.16C96.92,122.16,91.48,120.46,93.84,126.43Zm30.31-7.31a10.63,10.63,0,0,1-11.62,6.76,15.3,15.3,0,0,0-3.8.5c-1.55-2.4-3.34-2.61-6-.77a9.07,9.07,0,0,1-2.66.82l-.4-1.42,8.55-2.5c-3.55.58-7.42,0-10.19,3.25-.45.52-1.92.17-3-.31,3.14-4.33,7.77-4,12.37-4.62-.24-.65-.6-1.5-.87-2.37a10.31,10.31,0,0,1,3.92-11.65,8.64,8.64,0,0,1,10.58.39A10.45,10.45,0,0,1,124.15,119.12Zm27.59,82.38.11-1.21c1.55,1.16,4-4.16,5.21,1.8Zm41.67-50.07c5.76,2.15,1.62,6.36,2.28,9.73-2.51-.44-3.21-2.21-3.63-4.35a10.37,10.37,0,0,0-1.17-2.41l-.81,2.57.45-2.22C190.31,152.86,190.31,152.86,193.41,151.43Zm.64,17.4v7.11h-1.16a38.67,38.67,0,0,1,.08-6.43,17.21,17.21,0,0,1,2.69-6.22v8.78h-.82v-3.18Zm-3-2L190,157.67c2.22,1.35,4,5.63,3.38,8.31-.46,1.89-1.09,3.74-1.64,5.61l-.77-.14,1.58-6.59Zm-8,0c.17-2,0-4,0-6.07.41,1,1.49,2.28,1.38,3.49-.4,4.46-1.19,8.89-1.84,13.33l-.79-.11C182.23,173.89,182.73,170.35,183,166.79ZM170.63,171c0,2.84,0,5.07,0,7.29l-2.31-5.3Zm-1.08,23.5-2.44-2.23,2.62-7.53-2.63-1.59,3.55-4.62,4.56,1.18c-1.36-4-1.23-7.9,1-11.06l-.74,11.3,1,.21L174,183.08l1.22,2-2.59-.28c1.09,1.79,1.39,3.07-.79,4.68-1.2.88-1.2,3.39-1.74,5.17l-.59-.1Zm7.23,2.21-4.18-2.29-2.47.18h0l2.47-.18,3.16-3.29c.46,1.52-2.4,2.38.32,3.56Zm20.54-5.89-1.79-.67-1.14,2c0,1.36.39,2.93-.17,4-.35.68-1.67.86-2.74,1.17l1.76-1.47-2.3-1.54,2.11-2.17c-1.33-.2-3-2-3.72.76l-6.91-.93c3.11-2-1.94-5,2.74-6.5l-4.91-4.67,4.16-1,.45-1.79,2.58,2.87.47-.21-.61-1.5h0c.34-.14,1-.28,1-.42,0-1-.15-2-.26-2.92,0-1.53.09-3.07.13-4.63.1-1.93.21-3.85.32-5.89-3.38,4.27-1.25,9-1.36,13.5-2.31-3.37-1.39-7-.88-10.62.46-3.24,1.14-6.44,1.6-9,3.16,3.2,1.84,7.59.33,12,0,1.54-.09,3.09-.13,4.61.69,1.6,1.38,3.21,2.1,4.9,1.54-2.05,3.46-2.09,5.13-.44.45.44,1.46.32,2.24.84l-2.41.42,2.07,3.07-3.51,1,4.91,2.88Zm5.41-13.42h-.38v-8.2h.38Z" transform="translate(-0.68 -0.8)"/><path d="M57.47,1.61Z" transform="translate(-0.68 -0.8)"/><path d="M61.37,207v0Z" transform="translate(-0.68 -0.8)"/><path d="M61.38,207a93.83,93.83,0,0,1-9.43,3.18c-4.17,1-8.46,1.42-13.08,2.16a48.12,48.12,0,0,1,4.51,3.78c3.52,3.78,7.24,6.59,12.91,5.09,3.72-1,7.67.66,11.43-.58,1.47-.49,3.27-.74,4.28-1.75,4.67-4.66,9.11-9.55,14.19-15-8.87.77-17.06,0-24.71,3.59Z" transform="translate(-0.68 -0.8)"/><path d="M61.37,207h0Z" transform="translate(-0.68 -0.8)"/><path d="M61.36,207Z" transform="translate(-0.68 -0.8)"/><path d="M13.79,68.79A11.81,11.81,0,0,1,17.57,68c11.29-1.18,22.58-2.33,33.71-3.48l-44.21-1C9.64,68,13,64,15.66,65.4L10.4,67C11.09,68.67,11.78,69.74,13.79,68.79Z" transform="translate(-0.68 -0.8)"/><path d="M176.69,199.93v.1l.05,0-.05,0h0l.1-.09Z" transform="translate(-0.68 -0.8)"/><path d="M46,206.27l.25,1.12.63-2.24.54,1.76,1.47-3.38c-3.64.79-7.52-1.51-10.84,2.08C40.61,208.77,43.38,205.17,46,206.27Z" transform="translate(-0.68 -0.8)"/><path d="M6.35,63h19v-.64H6.44Z" transform="translate(-0.68 -0.8)"/><path d="M192.18,33.19c-.11-.37-.66-.62-1-.92-.57.54-1.52,1-1.61,1.63a20.59,20.59,0,0,0,.13,4h0l-1.92-5.29-1.48,3.3c.52.17,1.36.2,1.51.54,1,2.11,1.78,4.29,2.65,6.44l.05-4.06L194.43,44l.57-2.13-1.9-4.65C192.8,35.86,192.57,34.5,192.18,33.19Z" transform="translate(-0.68 -0.8)"/><path d="M63.63,122.76,52,123.46l.05.73,11.73-.3Z" transform="translate(-0.68 -0.8)"/><path d="M32.9,206l4.38-2.48H29.94Z" transform="translate(-0.68 -0.8)"/><path d="M173.13,43.47h0v-.08Z" transform="translate(-0.68 -0.8)"/><path d="M173.15,44l-.07,0h0l.06.06h0l.64.63-.64-.63-.66,1.2,1.21.57,0-1.21,1,1.28,2-.08,0,0,0,0v-.07h0l-.62-2.36-2.94,0Z" transform="translate(-0.68 -0.8)"/><path d="M178.38,210.75l.71-2.13.09,2.1,1.16-2.9.92-.62-1-.65v1.25l-1.19.58h0l-1.18-.65Z" transform="translate(-0.68 -0.8)"/><path d="M176.91,41.92l-.71,1.41,1.61-.54Z" transform="translate(-0.68 -0.8)"/><path d="M176.2,43.33l-.11,0,0,.06h0Z" transform="translate(-0.68 -0.8)"/><path d="M178,42.78l0,0h0l-.12,0,0,0Z" transform="translate(-0.68 -0.8)"/><path d="M178.56,42.52l-.6.25.52.53Z" transform="translate(-0.68 -0.8)"/><path d="M172.45,42.79l-1.15-.93.57,2.2.63-1.23.63.63,0-.09-.63-.64Z" transform="translate(-0.68 -0.8)"/><path d="M188.09,49.87l.67.44-.64-.7-1.4-2.69.74-.6,2,.77,2.4-1.7-1.38-2.21-2.84.16-1.35-6.54-3.54-4.51-.78.16c.38,2,.81,3.89,1.14,5.86.18,1.06.17,2.15.25,3.23l1.35,1.25-.35,1.77,1.18.77-1.16.15.09.16-.17.09-.11.6c.17.79.65,1.65.46,2.35a3.52,3.52,0,0,0,3.84,4.38l.14-1.26Z" transform="translate(-0.68 -0.8)"/><path d="M177.37,59.88c1.21.92,2.55,1.68,3.52,2.31V58.56l1.06.67,1.64-1.31-7.46-2.38C175,57.34,175.87,58.75,177.37,59.88Z" transform="translate(-0.68 -0.8)"/><path d="M178.47,45.14h0l0,.06.07,0V45l-.1.09Z" transform="translate(-0.68 -0.8)"/><path d="M176.76,45.78l2,.06-.29-.64-1.65-.84Z" transform="translate(-0.68 -0.8)"/><path d="M180.07,52.1l-.54-.63-.35.29.73.54Z" transform="translate(-0.68 -0.8)"/><path d="M179.5,44.14l-.94-.63q0,.76,0,1.52Z" transform="translate(-0.68 -0.8)"/><path d="M178.57,43.52v-.14l-.08-.08v.15Z" transform="translate(-0.68 -0.8)"/></svg>