<svg id="Capa_1" data-name="Capa 1" xmlns="http://www.w3.org/2000/svg" viewBox="0 0 773.9 441.18"><defs><style>.cls-1{fill:#fff;}</style></defs><title>Soundcloud</title><path d="M641.86,152.52c6.56-1.76,12.9-4,19.43-5.11,29.9-5.25,56.67,1.91,79.73,21.65,17.53,15,27.93,34.23,31.69,57,8.14,49.25-24.83,97.46-73.66,107.83A98.38,98.38,0,0,1,678.48,336L559.26,336l-142.44,0c-7.49,0-12.26-4.79-12.26-12.33q0-96.81,0-193.61,0-52.67,0-105.33c0-.59,0-1.17,0-1.76-.19-5.07,2.14-8.58,6.76-10.43S420.37,9,425,7.54A166.41,166.41,0,0,1,486.62.46c34.24,2.55,65,14.31,91.92,35.68,31.77,25.25,51.9,57.9,60.44,97.6,1.23,5.71,1.79,11.56,2.67,17.35C641.73,151.66,641.81,152.23,641.86,152.52Z" transform="translate(-0.05)"/><path d="M371.7,178.92q1-48.43,1.91-96.87.49-24.61,1-49.22a10.56,10.56,0,0,1,10.21-10.49A10.25,10.25,0,0,1,395.45,32c.44,7.84.46,15.7.64,23.55q1.18,53.35,2.34,106.71c.52,23.79.84,47.59,1.6,71.37.49,15.22-.89,30.33-1.71,45.47-.69,12.58-1.47,25.15-2.23,37.73-.19,3.1-.3,6.21-.64,9.29a10.34,10.34,0,0,1-10.77,9.24,10.53,10.53,0,0,1-10-10.08c-1.25-22.64-2.73-45.28-3.69-67.94-.51-12-.23-24.14-.09-36.2C371,207,371.4,193,371.7,178.92Z" transform="translate(-0.05)"/><path d="M365.34,188.31c.4,19.34,1,38.68,1.13,58,.07,8.13-.7,16.27-1.12,24.41q-1,18.52-2,37c-.34,6.32-.64,12.64-1,19a9.87,9.87,0,0,1-9.66,9.13,9.74,9.74,0,0,1-9.76-8.8c-.48-6.13-.68-12.29-1-18.43-.92-19.44-2-38.87-2.66-58.31-.33-10.3.12-20.63.31-30.94q.59-33.32,1.26-66.63.95-50.46,1.9-100.92a15.21,15.21,0,0,1,.67-4.49,9.73,9.73,0,0,1,18.91,2.78c.29,9.55.47,19.1.68,28.65q1,46.5,2,93c.11,5.51,0,11,0,16.52Z" transform="translate(-0.05)"/><path d="M307.76,203.93q1.19-47.37,2.38-94.74.33-13.36.64-26.72c.09-3.81,1.57-6.83,5-8.62,5.56-2.85,12.38.5,13.05,6.7.57,5.23.52,10.53.67,15.8Q331.31,159,333,221.67c.23,8.26.66,16.52.62,24.78,0,6.55-.64,13.11-1,19.66q-1,16.94-2,33.87c-.51,8.77-.94,17.55-1.51,26.32-.44,6.77-6,10.88-11.93,8.94a8.45,8.45,0,0,1-6.3-7.85c-.56-8.12-.92-16.26-1.35-24.4-.91-17.44-2-34.87-2.63-52.32-.32-8.48.13-17,.3-25.48.14-7.09.37-14.18.55-21.27Z" transform="translate(-0.05)"/><path d="M275.77,201.33q1.18-44.56,2.36-89.13c.31-11.9.59-23.79.89-35.69.12-4.56,2.33-7.79,6.07-8.91a8.25,8.25,0,0,1,10.73,6.73c.52,4.47.49,9,.62,13.51q1.15,39,2.26,78c.75,25.6,1.68,51.21,2.23,76.81.17,7.83-.56,15.68-1,23.52-.71,12.29-1.54,24.57-2.32,36.85-.5,8-1,15.91-1.5,23.86-.31,4.46-2.82,7.5-6.73,8.38a8.15,8.15,0,0,1-9.1-4.07,11.15,11.15,0,0,1-1.2-4.34c-.92-15.5-1.75-31-2.61-46.52-.58-10.42-1.43-20.83-1.68-31.25-.21-9.07.24-18.16.44-27.25.15-6.86.37-13.71.57-20.57Z" transform="translate(-0.05)"/><path d="M245.12,160.12q1.25-44.38,2.5-88.75a7.88,7.88,0,0,1,7.68-8,7.76,7.76,0,0,1,7.9,7.75c.5,13.41.9,26.83,1.32,40.24q1.18,37.43,2.35,74.86c.62,20,1.38,39.95,1.79,59.92.13,6.19-.67,12.39-1.09,18.59q-1.14,17.1-2.34,34.19c-.67,9.76-1.31,19.52-2,29.28a7.69,7.69,0,0,1-8,7.38c-4.13-.11-7.25-3.36-7.52-7.78-1.48-24.33-3.12-48.65-4.39-73-.45-8.7-.19-17.45,0-26.17.45-19.45,1.07-38.9,1.59-58.35.09-3.4,0-6.79,0-10.19Z" transform="translate(-0.05)"/><path d="M213.71,162.74q.79-25.48,1.58-51,.54-17.4,1.08-34.8a7.26,7.26,0,0,1,7.17-7.21c3.93,0,7,3.14,7.2,7.38.25,6.09.45,12.18.66,18.27q1.3,38.13,2.61,76.26c.86,24.83,1.86,49.66,2.57,74.5.15,5.3-.62,10.64-1,16-.75,10.34-1.55,20.68-2.3,31-.86,11.75-1.67,23.49-2.55,35.24a7.28,7.28,0,0,1-7.32,7.07c-3.91-.11-6.78-3.15-7.05-7.33q-1.68-26.14-3.41-52.27c-.61-9.36-1.53-18.7-1.73-28.07-.18-8.78.39-17.57.65-26.36q.85-28.12,1.73-56.24c0-.82,0-1.64,0-2.46Z" transform="translate(-0.05)"/><path d="M182.49,169.65q1.44-39.71,2.89-79.42a6.51,6.51,0,1,1,13-.12q1.09,26.35,2.14,52.7,1.33,32.41,2.67,64.82c.51,12.47,1.21,24.94,1.43,37.42.1,6.13-.66,12.28-1.12,18.41-.85,11.39-1.77,22.78-2.66,34.17-.83,10.63-1.63,21.26-2.5,31.89a6.5,6.5,0,0,1-13-.32c-1.73-24.9-3.39-49.81-5.22-74.7-.8-10.86.18-21.67.47-32.5.41-15.11,1.07-30.22,1.6-45.33.08-2.34,0-4.68,0-7Z" transform="translate(-0.05)"/><path d="M169.86,184.6c1.08,20.37,2.32,40.73,3.15,61.11.23,5.7-.66,11.45-1.12,17.17-.86,10.75-1.79,21.49-2.68,32.23-1,11.56-1.88,23.13-2.88,34.69a6,6,0,0,1-5.87,5.69,5.86,5.86,0,0,1-5.76-5.55c-.63-7.24-1.12-14.49-1.66-21.74q-1.54-20.78-3.06-41.55c-.48-6.49-1.19-13-1.35-19.46-.13-5.2.4-10.42.65-15.63q1-20.55,2-41.1,1.35-28.37,2.7-56.73c.19-4.1.34-8.2.55-12.3a17.66,17.66,0,0,1,.45-3.83,5.79,5.79,0,0,1,6-4.13,6.07,6.07,0,0,1,5.37,6c.36,6.14.68,12.29,1,18.43q1.24,23.35,2.46,46.71Z" transform="translate(-0.05)"/><path d="M117.72,247q.84-10.47,1.68-20.88,1.33-16.29,2.68-32.58c.7-8.47,1.38-16.93,2.12-25.39a5.21,5.21,0,0,1,5.12-4.85,5.1,5.1,0,0,1,5.09,4.66c.66,5.88,1.17,11.77,1.73,17.66q1.71,18.19,3.39,36.39c.74,8,1.79,16,2.11,24,.2,5.11-.63,10.27-1.07,15.41-1,11.32-2,22.64-3,34q-1.48,16.72-2.92,33.44c-.21,2.48-1,4.62-3.5,5.62a5.12,5.12,0,0,1-6.94-4.56c-.52-5.83-.95-11.68-1.41-17.52q-1.53-19.45-3-38.9Q118.72,260.24,117.72,247Z" transform="translate(-0.05)"/><path d="M87.1,246.84q1-13,2.07-25.93Q90.5,204.45,91.84,188c.7-8.58,1.38-17.17,2.11-25.75a4.49,4.49,0,0,1,4.29-4.32,4.29,4.29,0,0,1,4.62,3.92c.57,4.35.89,8.74,1.29,13.11q1.7,18.37,3.37,36.75c1.07,11.67,2.33,23.32,3.11,35,.27,4-.62,8.16-1,12.24q-1.49,15.83-3,31.66c-1.2,12.71-2.37,25.43-3.6,38.14-.28,2.9-2.28,4.81-4.72,4.71s-4.15-1.95-4.39-4.82q-2.13-25.39-4.23-50.79l-2.48-29.77C87.16,247.66,87.13,247.25,87.1,246.84Z" transform="translate(-0.05)"/><path d="M319.77,440c-4.06,0-8,0-12,0-.43,0-.94-.6-1.24-1q-14.89-22.28-29.73-44.6a.53.53,0,0,0-.5-.32v45.88H262.54V369c4.29,0,8.55,0,12.81,0,.44,0,1,.54,1.27,1q14.47,21.71,28.9,43.46c.06.1.15.18.39.46V369.13h13.86Z" transform="translate(-0.05)"/><path d="M79.87,247.08q-1,9.26-1.9,18.53-1.67,16.17-3.36,32.33c-1,9.38-1.91,18.76-2.88,28.14-.26,2.53-1.88,4.19-3.94,4.18s-3.6-1.48-3.85-4c-.83-8.45-1.58-16.91-2.35-25.37q-1.7-18.55-3.39-37.1c-.5-5.43-1.3-10.85-1.4-16.28-.08-4.6.64-9.22,1-13.83q1.51-17.33,3-34.66,1.46-16.72,2.92-33.44c0-.35.09-.7.15-1,.36-2.25,1.81-3.69,3.76-3.72a3.93,3.93,0,0,1,3.94,3.75c.47,3.78.78,7.57,1.16,11.36l3.76,37.77q1.63,16.35,3.25,32.7C79.86,246.61,79.86,246.85,79.87,247.08Z" transform="translate(-0.05)"/><path d="M338.26,440v-71c.61,0,1.13-.08,1.64-.08,7.15,0,14.3,0,21.45,0A44.67,44.67,0,0,1,375,371.06c9.44,3,15.72,9.29,18.62,18.77a46.77,46.77,0,0,1,.86,25C391.3,428.1,381,437.29,367,439.32a81.69,81.69,0,0,1-10.33.69C350.6,440.11,344.51,440,338.26,440ZM352.49,426c3.84,0,7.49.27,11.08-.05,8.55-.76,14.56-5.84,16.6-13.88a32.65,32.65,0,0,0-.34-17.2,14.85,14.85,0,0,0-8.95-10.18c-5.93-2.42-12.15-1.84-18.39-1.87Z" transform="translate(-0.05)"/><path d="M678.49,440V369.09c.49,0,.89-.09,1.28-.09,7.56,0,15.13-.24,22.67.1a54.79,54.79,0,0,1,12.93,2.1c9.24,2.72,15.37,9,18.31,18.13a46,46,0,0,1,1,25.66c-3.37,13.34-12.36,21-25.52,23.95a49.24,49.24,0,0,1-9.58,1c-6.5.16-13,0-19.51,0ZM692.69,426c3.77,0,7.47.28,11.12-.06,8.43-.77,14.39-5.74,16.47-13.59a32.37,32.37,0,0,0-.29-17.54,15.09,15.09,0,0,0-11.48-11,27.22,27.22,0,0,0-5.54-.88c-3.42-.14-6.86,0-10.28,0Z" transform="translate(-0.05)"/><path d="M527.36,404.52c.11-7.1,1.15-14,4.35-20.44,6.15-12.4,17.69-17.51,30.7-15.92,12.51,1.52,20.35,8.93,24.23,20.58a49.45,49.45,0,0,1,0,31.45c-4.33,13.39-14.82,21-28.58,20.92s-24-7.71-28.35-21A52.37,52.37,0,0,1,527.36,404.52Zm47.09,0a32.12,32.12,0,0,0-2.56-13.69c-2.7-5.83-7.26-8.83-13.75-8.8s-11.11,3-13.52,8.83a35,35,0,0,0,0,27.36c2.41,5.88,7.14,8.81,13.53,8.84s11-3,13.75-8.83A32.25,32.25,0,0,0,574.45,404.49Z" transform="translate(-0.05)"/><path d="M111.24,404.56c.18-7.08,1.3-13.9,4.42-20.3,6-12.38,17.56-17.75,30.75-16.1,13.88,1.74,21.69,10.44,25.09,23.42a49.25,49.25,0,0,1-1.21,29.75c-4.64,12.83-14.94,19.9-28.51,19.78-13.16-.12-23.38-7.57-27.76-20.34a39.84,39.84,0,0,1-1.72-6.61C111.79,411,111.58,407.76,111.24,404.56Zm47.74,0-.49-.1a30.21,30.21,0,0,0-.22-4.21,51,51,0,0,0-2-8.51c-2.47-6.57-7.36-9.81-14.12-9.79s-11.68,3.36-14,9.93a36.17,36.17,0,0,0,0,25.12c2.4,6.66,7.54,10,14.38,10,6.65-.07,11.77-3.59,13.94-10.3C157.72,412.83,158.17,408.66,159,404.61Z" transform="translate(-0.05)"/><path d="M98.67,378.66,89.09,389c-1.31-1.1-2.37-2.07-3.51-2.95a20.52,20.52,0,0,0-16.89-4c-3.48.63-5.76,2.67-6,5.28s.56,4.62,2.94,5.64a76,76,0,0,0,7.93,2.76c4.53,1.37,9.2,2.34,13.63,4,6.87,2.53,11.93,7,13.13,14.67,2.1,13.43-4.42,23-17.76,25.75-10.13,2.11-19.94,1.24-29-4.12a23.2,23.2,0,0,1-8.22-7.88l10.1-9a22.58,22.58,0,0,0,13.78,7.74,26.27,26.27,0,0,0,11.49-.51c3.26-1,5-3,5.22-5.89.28-3.58-.72-5.72-4.24-7-4.26-1.58-8.73-2.58-13.07-4a90.21,90.21,0,0,1-11.2-4c-12.33-5.85-12.43-24.6-1.81-32.21,6.51-4.66,13.82-5.85,21.54-5.2a33.21,33.21,0,0,1,21,9.93A7.39,7.39,0,0,1,98.67,378.66Z" transform="translate(-0.05)"/><path d="M603.18,369.05h14.13c0,.73,0,1.41,0,2.09,0,12.31-.07,24.61.05,36.92a34,34,0,0,0,1.12,8.66c1.88,6.79,6.9,10.54,13.43,10.48,6.71-.06,11.75-4,13.48-10.91a36.7,36.7,0,0,0,1-8.51c.11-12.13,0-24.26,0-36.39v-2.25h14.18c0,.47,0,.92,0,1.38,0,13.13.14,26.26-.1,39.38a47.09,47.09,0,0,1-1.86,12.27c-3.41,11.64-12.54,18.4-24.88,18.91-7.23.3-14-1.07-19.83-5.65-6.25-4.92-9.19-11.69-10.3-19.35a55.37,55.37,0,0,1-.53-7.7c-.05-12.54,0-25.08,0-37.62C603.09,370.23,603.15,369.71,603.18,369.05Z" transform="translate(-0.05)"/><path d="M187.21,369.09h14.08v2.15q0,18.37,0,36.74a26.09,26.09,0,0,0,2,11c2.45,5.39,6.62,8.24,12.56,8.23s10.14-2.8,12.62-8.18a24.53,24.53,0,0,0,2-10.45q0-18.72,0-37.45c0-.63,0-1.27,0-2h14a4.28,4.28,0,0,1,.14.79c0,14.24,0,28.48-.17,42.72a31.69,31.69,0,0,1-4.66,16.2c-4.95,8.1-12.53,11.64-21.71,12.24a30.77,30.77,0,0,1-14.12-2.15c-8.77-3.69-13.56-10.63-15.69-19.63a30.68,30.68,0,0,1-1-6.76C187.16,398.1,187.21,383.69,187.21,369.09Z" transform="translate(-0.05)"/><path d="M26.63,246.35c1.67-15.17,3.32-30.07,5-45q1.27-11.52,2.52-23.05c.28-2.55,1.35-3.84,3.23-3.87s3,1.19,3.37,3.76c1,7.9,2,15.8,2.94,23.71,1.57,12.67,2.9,25.37,4.82,38,1,6.6,0,12.93-.77,19.36-1.56,12.43-3.17,24.86-4.75,37.28-.75,5.87-1.47,11.73-2.22,17.6a7.2,7.2,0,0,1-.52,2A2.91,2.91,0,0,1,37,318a3,3,0,0,1-2.69-2.65c-.35-1.9-.51-3.83-.72-5.75Q30.13,278.82,26.71,248C26.64,247.37,26.65,246.72,26.63,246.35Z" transform="translate(-0.05)"/><path d="M453.69,418l11.89,7.07c-3.13,6.47-7.64,11.36-14.31,13.89-13.77,5.23-33.55,2-40.42-18.6-4.14-12.43-3.85-24.89,2.43-36.64,10-18.71,31.39-18.48,42.3-11.8A26.92,26.92,0,0,1,465.8,383.6l-12.86,5.94c-.26-.12-.41-.15-.46-.23-3.19-5.66-8.18-7.82-14.45-7.25-6,.54-10.16,3.89-12.45,9.27-3.84,9-3.86,18.16.48,27,3.31,6.77,9.72,9.71,17.12,8.32,4.15-.78,7-3.41,9.22-6.77Z" transform="translate(-0.05)"/><path d="M478.19,369.09H492.3v56.85h28.43v14H478.19Z" transform="translate(-0.05)"/><path d="M0,247c.86-6.65,1.69-13.1,2.54-19.54q1.51-11.41,3-22.81c.31-2.31,1.39-3.58,3.11-3.6s2.88,1.28,3.23,3.53c2.15,13.83,4.39,27.64,6.35,41.49.35,2.51-.4,5.21-.81,7.79C15.7,265.46,13.82,277.08,12,288.7c-.26,1.67-.84,3.09-2.67,3.52s-3.34-.95-3.65-3.14q-1.41-10.27-2.78-20.54T.14,248C.09,247.59.06,247.18,0,247Z" transform="translate(-0.05)"/><path class="cls-1" d="M352.49,426V382.79c6.24,0,12.46-.56,18.39,1.87a14.85,14.85,0,0,1,8.95,10.18,32.65,32.65,0,0,1,.34,17.2c-2,8-8,13.12-16.6,13.88C360,426.23,356.34,426,352.49,426Z" transform="translate(-0.05)"/><path class="cls-1" d="M692.69,426V382.88c3.42,0,6.86-.1,10.28,0a27.22,27.22,0,0,1,5.54.88,15.09,15.09,0,0,1,11.48,11,32.37,32.37,0,0,1,.29,17.54c-2.08,7.85-8,12.83-16.47,13.59C700.16,426.24,696.47,426,692.69,426Z" transform="translate(-0.05)"/><path class="cls-1" d="M574.45,404.5a32.24,32.24,0,0,1-2.56,13.7C569.2,424,564.6,427,558.15,427s-11.11-3-13.53-8.84a35,35,0,0,1,0-27.36C547,385,551.73,382,558.14,382s11,3,13.75,8.8A32.12,32.12,0,0,1,574.45,404.5Z" transform="translate(-0.05)"/><path class="cls-1" d="M159,404.61c-.82,4-1.27,8.21-2.53,12.12-2.17,6.71-7.29,10.23-13.94,10.3-6.84.07-12-3.31-14.38-10a36.17,36.17,0,0,1,0-25.12c2.37-6.57,7.36-9.91,14-9.93s11.64,3.22,14.12,9.79a51,51,0,0,1,2,8.51,30.21,30.21,0,0,1,.22,4.21Z" transform="translate(-0.05)"/></svg>